<?xml version="1.0" standalone="no"?>
<!DOCTYPE svg PUBLIC "-//W3C//DTD SVG 20010904//EN"
 "http://www.w3.org/TR/2001/REC-SVG-20010904/DTD/svg10.dtd">
<svg version="1.0" xmlns="http://www.w3.org/2000/svg"
 width="3000.000000pt" height="3000.000000pt" viewBox="0 0 3000.000000 3000.000000"
 preserveAspectRatio="xMidYMid meet">

<g transform="translate(0.000000,3000.000000) scale(0.100000,-0.100000)"
fill="#000000" stroke="none">
<path d="M6415 22859 c-465 -35 -963 -172 -1375 -379 -360 -180 -664 -402
-961 -699 -413 -413 -699 -868 -887 -1412 -88 -254 -152 -545 -184 -834 -19
-178 -19 -8632 0 -8810 81 -730 345 -1377 793 -1942 130 -163 418 -451 579
-579 603 -478 1292 -747 2055 -804 197 -14 16519 -14 16706 0 766 60 1448 328
2049 804 161 128 449 416 579 579 105 133 254 353 333 492 246 433 402 926
460 1450 19 178 19 8632 0 8810 -81 730 -345 1377 -793 1942 -130 163 -418
451 -579 579 -601 476 -1284 744 -2049 804 -164 12 -16556 12 -16726 -1z
m16880 -312 c66 -10 185 -31 265 -47 1010 -203 1886 -873 2355 -1800 176 -349
284 -704 342 -1126 17 -122 18 -365 18 -4444 0 -4079 -1 -4322 -18 -4444 -58
-422 -166 -777 -342 -1126 -469 -927 -1345 -1597 -2355 -1800 -80 -16 -203
-37 -275 -47 -124 -17 -528 -18 -8500 -18 -7972 0 -8376 1 -8500 18 -71 10
-195 31 -275 47 -1010 203 -1886 873 -2355 1800 -176 349 -284 704 -342 1126
-17 122 -18 365 -18 4444 0 4079 1 4322 18 4444 58 422 166 777 342 1126 469
927 1345 1597 2355 1800 135 27 337 55 455 63 28 2 3799 3 8380 2 7868 -1
8337 -2 8450 -18z"/>
<path d="M6775 21120 c-227 -37 -418 -96 -607 -190 -201 -100 -353 -207 -517
-365 -327 -315 -529 -709 -601 -1176 -20 -126 -20 -189 -20 -4259 0 -4070 0
-4133 20 -4259 37 -237 95 -422 194 -621 109 -216 236 -391 407 -555 319 -308
683 -486 1132 -555 129 -20 186 -20 7997 -20 7811 0 7868 0 7997 20 449 69
813 247 1132 555 327 315 529 709 601 1176 20 126 20 189 20 4259 0 4070 0
4133 -20 4259 -37 237 -95 422 -194 621 -110 219 -237 392 -412 560 -317 304
-682 482 -1133 551 -121 19 -299 19 -8005 18 -7475 -1 -7887 -2 -7991 -19z
m4545 -2866 c81 -20 249 -100 316 -151 104 -79 148 -121 226 -213 145 -172
249 -349 343 -584 310 -773 310 -1789 0 -2562 -176 -437 -423 -741 -720 -884
-136 -66 -213 -84 -355 -84 -142 0 -219 18 -355 84 -150 73 -258 158 -377 300
-145 172 -249 349 -343 584 -310 773 -310 1789 0 2562 218 543 552 884 940
960 85 16 233 11 325 -12z m7758 -24 c150 -42 286 -121 418 -243 145 -134 259
-297 375 -532 408 -832 409 -2051 0 -2880 -213 -432 -472 -684 -798 -777 -110
-31 -286 -31 -396 0 -156 44 -291 122 -423 245 -145 134 -259 297 -375 532
-409 833 -409 2047 0 2880 116 235 230 398 375 532 158 146 329 235 511 264
76 12 231 2 313 -21z"/>
<path d="M21481 8874 c-247 -66 -398 -318 -336 -559 66 -250 317 -403 560
-340 171 45 295 170 340 342 86 330 -234 646 -564 557z"/>
</g>
</svg>
